<svg xmlns="http://www.w3.org/2000/svg" width="236" height="322" viewBox="0 0 236 322">
  <g id="Dental-chart" fill="none" fill-rule="evenodd">
    <g id="Deciduous-teeth">
      <g id="Lower-right-numbers" fill="#000000" transform="translate(0 186)" font-size="12" font-family="Helvetica">
        <text id="18d">
          <tspan x="20.979" y="86">18d</tspan>
        </text>
        <text id="19d">
          <tspan x="6.979" y="51">19d</tspan>
        </text>
        <text id="20d">
          <tspan x=".979" y="11">20d</tspan>
        </text>
        <text id="16d">
          <tspan x="85.979" y="133">16d</tspan>
        </text>
        <text id="17d">
          <tspan x="57.979" y="115">17d</tspan>
        </text>
      </g>
      <g id="Lower-left-numbers" fill="#000000" transform="translate(130 186)" font-size="12" font-family="Helvetica">
        <text id="11d">
          <tspan x="85" y="11">11d</tspan>
        </text>
        <text id="12d">
          <tspan x="76" y="47">12d</tspan>
        </text>
        <text id="13d">
          <tspan x="58.5" y="83">13d</tspan>
        </text>
        <text id="14d">
          <tspan x="28" y="115">14d</tspan>
        </text>
        <text id="15d">
          <tspan x="0" y="133">15d</tspan>
        </text>
      </g>
      <g id="Upper-left-numbers" fill="#000000" transform="translate(130)" font-size="12" font-family="Helvetica">
        <text id="7d">
          <tspan x="32" y="25">7d</tspan>
        </text>
        <text id="8d">
          <tspan x="65" y="57">8d</tspan>
        </text>
        <text id="9d">
          <tspan x="76" y="91">9d</tspan>
        </text>
        <text id="6d">
          <tspan x="0" y="11">6d</tspan>
        </text>
        <text id="10d">
          <tspan x="85" y="131">10d</tspan>
        </text>
      </g>
      <g id="Upper-left-numbers" fill="#000000" transform="translate(7)" font-size="12" font-family="Helvetica">
        <text id="5d">
          <tspan x="85.652" y="11">5d</tspan>
        </text>
        <text id="4d">
          <tspan x="57.652" y="25">4d</tspan>
        </text>
        <text id="3d">
          <tspan x="20.652" y="57">3d</tspan>
        </text>
        <text id="2d">
          <tspan x="6.652" y="91">2d</tspan>
        </text>
        <text id="1d">
          <tspan x=".652" y="131">1d</tspan>
        </text>
      </g>
      <g id="Lower-right" transform="matrix(1 0 0 -1 29 299.486)">
        <g id="tooth-20d" transform="translate(0 89)">
          <path id="Upper-second-molar" fill="#FEFBF4" stroke="#000000" d="M7.51855469,1.12011719 C2.47560153,2.62202764 2.41796875,11.7246094 2.41796875,20.5478516 C0.369140625,28.0761719 1.22611273,29.0048566 0.369140625,31.3925781 C-1.65917969,37.0439453 20.8671875,38.7001953 20.8671875,38.7001953 C20.8671875,38.7001953 27.6909378,35.5872886 31.6445312,26.5214844 C35.4375,17.8240012 30.6435547,5.59375 28.7490234,5.59375 C22.0312226,5.59375 12.6337891,-0.403320313 7.51855469,1.12011719 Z"/>
          <text id="tooth-20d-x" fill="#000000" fill-opacity="0" font-family="Helvetica" font-size="24">
            <tspan x="10.492" y="26">×</tspan>
          </text>
        </g>
        <g id="tooth-19d" transform="translate(8 51)">
          <path id="Upper-first-molar" fill="#FEFBF4" stroke="#000000" d="M11.5068359,0.74609375 C8.38912674,0.74609375 6.72541544,3.95740045 5.46191406,7.16308594 C1.92578125,16.1347656 0.733398437,22.3045525 0.733398437,29.0039062 C0.733398437,37.5464598 16.3320312,39.1171875 21.6933594,37.7265625 C28.0568521,36.0759954 33.3027344,10.7714844 28.0205078,6.08886719 C22.9279953,1.57442874 20.0634766,0.74609375 11.5068359,0.74609375 Z"/>
          <text id="tooth-19d-x" fill="#000000" fill-opacity="0" font-family="Helvetica" font-size="24">
            <tspan x="8.492" y="28">×</tspan>
          </text>
        </g>
        <g id="tooth-18d" transform="translate(26 25.803)">
          <path id="Lower-canine" fill="#FEFBF4" stroke="#000000" d="M23.0419922,5.65429687 C23.0419922,-0.237172219 12.1086389,-0.488343279 5.73339844,3.53710938 C1.15383159,6.42873826 -0.32649573,13.0059721 0.4453125,15.2148438 C3.76125499,24.7048844 25.526576,29.8445433 26.7177734,26.4951172 C27.9089709,23.1456911 23.0419922,23.7232188 23.0419922,5.65429687 Z"/>
          <text id="tooth-18d-x" fill="#000000" fill-opacity="0" font-family="Helvetica" font-size="16">
            <tspan x="9.328" y="18">×</tspan>
          </text>
        </g>
        <g id="tooth-17d" transform="translate(47 12.341)">
          <path id="Lower-lateral-incistor" fill="#FEFBF4" stroke="#000000" d="M0.658691406,6.05371094 C2.59912109,-0.817382813 18.0374521,-0.744139245 17.7514648,1.60302734 C16.9692383,8.02294922 16.6782227,20.5087891 13.6870117,20.5087891 C10.8266602,20.5087891 -0.729324296,10.9686976 0.658691406,6.05371094 Z"/>
          <text id="tooth-17d-x" fill="#000000" fill-opacity="0" font-family="Helvetica" font-size="14">
            <tspan x="5.412" y="14">×</tspan>
          </text>
        </g>
        <g id="tooth-16d" transform="translate(65)">
          <path id="Lower-central-incistor" fill="#FEFBF4" stroke="#000000" d="M4.40869141,1.60644531 C8.10888672,0.564941406 12.9031399,0.310934714 19.328125,1.60644531 C21.3631261,2.01677552 21.1956365,9.8257985 18.4003806,13.5428472 C12.9700045,20.7640009 14.0170518,23.7320141 9.88473938,22.8486388 C8.13337304,22.4742446 7.63774489,20.3986606 6.14160156,17.1801758 C4.64545824,13.961691 3.50510561,12.7492132 1.5625,8.95410156 C-0.103962346,5.6984687 0.710950896,2.64725826 4.40869141,1.60644531 Z"/>
          <text id="tooth-16d-x" fill="#000000" fill-opacity="0" font-family="Helvetica" font-size="14">
            <tspan x="6.412" y="15">×</tspan>
          </text>
        </g>
      </g>
      <g id="Lower-left" transform="rotate(180 103.5 149.972)">
        <g id="tooth-11d" transform="translate(0 89)">
          <path id="Upper-second-molar" fill="#FEFBF4" stroke="#000000" d="M7.51855469,1.12011719 C2.47560153,2.62202764 2.41796875,11.7246094 2.41796875,20.5478516 C0.369140625,28.0761719 1.22611273,29.0048566 0.369140625,31.3925781 C-1.65917969,37.0439453 20.8671875,38.7001953 20.8671875,38.7001953 C20.8671875,38.7001953 27.6909378,35.5872886 31.6445312,26.5214844 C35.4375,17.8240012 30.6435547,5.59375 28.7490234,5.59375 C22.0312226,5.59375 12.6337891,-0.403320313 7.51855469,1.12011719 Z"/>
          <text id="tooth-11d-x" fill="#000000" fill-opacity="0" font-family="Helvetica" font-size="24">
            <tspan x="9.673" y="26">×</tspan>
          </text>
        </g>
        <g id="tooth-12d" transform="translate(8 51)">
          <path id="Upper-first-molar" fill="#FEFBF4" stroke="#000000" d="M11.5068359,0.74609375 C8.38912674,0.74609375 6.72541544,3.95740045 5.46191406,7.16308594 C1.92578125,16.1347656 0.733398437,22.3045525 0.733398437,29.0039062 C0.733398437,37.5464598 16.3320312,39.1171875 21.6933594,37.7265625 C28.0568521,36.0759954 33.3027344,10.7714844 28.0205078,6.08886719 C22.9279953,1.57442874 20.0634766,0.74609375 11.5068359,0.74609375 Z"/>
          <text id="tooth-12d-x" fill="#000000" fill-opacity="0" font-family="Helvetica" font-size="24">
            <tspan x="9" y="26">×</tspan>
          </text>
        </g>
        <g id="tooth-13d" transform="translate(26 26.779)">
          <path id="Lower-canine" fill="#FEFBF4" stroke="#000000" d="M23.0419922,5.65429687 C23.0419922,-0.237172219 12.1086389,-0.488343279 5.73339844,3.53710938 C1.15383159,6.42873826 -0.32649573,13.0059721 0.4453125,15.2148438 C3.76125499,24.7048844 25.526576,29.8445433 26.7177734,26.4951172 C27.9089709,23.1456911 23.0419922,23.7232188 23.0419922,5.65429687 Z"/>
          <text id="tooth-13d-x" fill="#000000" fill-opacity="0" font-family="Helvetica" font-size="16">
            <tspan x="10" y="18">×</tspan>
          </text>
        </g>
        <g id="tooth-14d" transform="translate(46 11.335)">
          <path id="Lower-lateral-incistor" fill="#FEFBF4" stroke="#000000" d="M0.658691406,6.05371094 C2.59912109,-0.817382813 18.0374521,-0.744139245 17.7514648,1.60302734 C16.9692383,8.02294922 16.6782227,20.5087891 13.6870117,20.5087891 C10.8266602,20.5087891 -0.729324296,10.9686976 0.658691406,6.05371094 Z"/>
          <text id="tooth-14d-x" fill="#000000" fill-opacity="0" font-family="Helvetica" font-size="14">
            <tspan x="5.412" y="14">×</tspan>
          </text>
        </g>
        <g id="tooth-15d" transform="translate(64)">
          <path id="Lower-central-incistor" fill="#FEFBF4" stroke="#000000" d="M4.40869141,1.60644531 C8.10888672,0.564941406 12.9031399,0.310934714 19.328125,1.60644531 C21.3631261,2.01677552 21.1956365,9.8257985 18.4003806,13.5428472 C12.9700045,20.7640009 14.0170518,23.7320141 9.88473938,22.8486388 C8.13337304,22.4742446 7.63774489,20.3986606 6.14160156,17.1801758 C4.64545824,13.961691 3.50510561,12.7492132 1.5625,8.95410156 C-0.103962346,5.6984687 0.710950896,2.64725826 4.40869141,1.60644531 Z"/>
          <text id="tooth-15d-x" fill="#000000" fill-opacity="0" font-family="Helvetica" font-size="14">
            <tspan x="6.412" y="15">×</tspan>
          </text>
        </g>
      </g>
      <g id="Upper-left" transform="matrix(-1 0 0 1 208 19)">
        <g id="tooth-10d" transform="translate(0 93)">
          <path id="Upper-second-molar" fill="#FEFBF4" stroke="#000000" d="M7.51855469,1.12011719 C2.47560153,2.62202764 2.41796875,11.7246094 2.41796875,20.5478516 C0.369140625,28.0761719 1.22611273,29.0048566 0.369140625,31.3925781 C-1.65917969,37.0439453 20.8671875,38.7001953 20.8671875,38.7001953 C20.8671875,38.7001953 27.6909378,35.5872886 31.6445312,26.5214844 C35.4375,17.8240012 30.6435547,5.59375 28.7490234,5.59375 C22.0312226,5.59375 12.6337891,-0.403320313 7.51855469,1.12011719 Z"/>
          <text id="tooth-10d-x" fill="#000000" fill-opacity="0" font-family="Helvetica" font-size="24">
            <tspan x="10.492" y="26">×</tspan>
          </text>
        </g>
        <g id="tooth-9d" transform="translate(8 55)">
          <path id="Upper-first-molar" fill="#FEFBF4" stroke="#000000" d="M11.5068359,0.74609375 C8.38912674,0.74609375 6.72541544,3.95740045 5.46191406,7.16308594 C1.92578125,16.1347656 0.733398437,22.3045525 0.733398437,29.0039062 C0.733398437,37.5464598 16.3320312,39.1171875 21.6933594,37.7265625 C28.0568521,36.0759954 33.3027344,10.7714844 28.0205078,6.08886719 C22.9279953,1.57442874 20.0634766,0.74609375 11.5068359,0.74609375 Z"/>
          <text id="tooth-9d-x" fill="#000000" fill-opacity="0" font-family="Helvetica" font-size="24">
            <tspan x="8.492" y="26">×</tspan>
          </text>
        </g>
        <g id="tooth-8d" transform="translate(21 31)">
          <path id="Upper-canine" fill="#FEFBF4" stroke="#000000" d="M19.5507813,5.51171875 C19.5507813,0.327629346 9.74596697,-0.416146143 4.35742188,3.12597656 C0.486634173,5.67041198 0.342761647,11.7819301 0.995117188,13.7255859 C3.79785156,22.0761719 22.375,25.2255859 23.3818359,22.2783203 C24.3886719,19.3310547 19.5507813,21.4111328 19.5507813,5.51171875 Z"/>
          <text id="tooth-8d-x" fill="#000000" fill-opacity="0" font-family="Helvetica" font-size="16">
            <tspan x="7.328" y="16">×</tspan>
          </text>
        </g>
        <g id="tooth-7d" transform="translate(39 15)">
          <path id="Upper-lateral-incistor" fill="#FEFBF4" stroke="#000000" d="M0.833984375,7.9609375 C0.833984375,-0.462890625 22.7668915,-1.45333695 22.3994141,2.20605469 C20.9296875,16.8417969 20.4910884,22.623173 16.5185547,25.5117188 C14.0419922,27.3125 0.833984375,13.1730747 0.833984375,7.9609375 Z"/>
          <text id="tooth-7d-x" fill="#000000" fill-opacity="0" font-family="Helvetica" font-size="16">
            <tspan x="8.883" y="15">×</tspan>
          </text>
        </g>
        <g id="tooth-6d" transform="translate(62)">
          <path id="Upper-central-incistor" fill="#FEFBF4" stroke="#000000" d="M4.96972656,1.90234375 C10.4847614,-0.498344353 15.5439453,0.318359375 22.8427734,1.90234375 C25.1545489,2.40404295 24.4137115,12.406441 21.2382813,16.9511719 C15.0693359,25.7802734 16.2587891,29.4091797 11.5644531,28.3291016 C8.25997817,27.5688042 6.65820313,23.1279297 1.11230469,11.4667969 C-0.780808221,7.48622613 0.892295794,3.67724452 4.96972656,1.90234375 Z"/>
          <text id="tooth-6d-x" fill="#000000" fill-opacity="0" transform="matrix(-1 0 0 1 26 0)" font-family="Helvetica" font-size="16">
            <tspan x="8.328" y="15">×</tspan>
          </text>
        </g>
      </g>
      <g id="Upper-right" transform="translate(28 19)">
        <g id="tooth-1d" transform="translate(0 93)">
          <path id="Upper-second-molar" fill="#FEFBF4" stroke="#000000" d="M7.51855469,1.12011719 C2.47560153,2.62202764 2.41796875,11.7246094 2.41796875,20.5478516 C0.369140625,28.0761719 1.22611273,29.0048566 0.369140625,31.3925781 C-1.65917969,37.0439453 20.8671875,38.7001953 20.8671875,38.7001953 C20.8671875,38.7001953 27.6909378,35.5872886 31.6445312,26.5214844 C35.4375,17.8240012 30.6435547,5.59375 28.7490234,5.59375 C22.0312226,5.59375 12.6337891,-0.403320313 7.51855469,1.12011719 Z"/>
          <text id="tooth-1d-x" fill="#000000" fill-opacity="0" font-family="Helvetica" font-size="24">
            <tspan x="10.492" y="26">×</tspan>
          </text>
        </g>
        <g id="tooth-2d" transform="translate(8 55)">
          <path id="Upper-first-molar" fill="#FEFBF4" stroke="#000000" d="M11.5068359,0.74609375 C8.38912674,0.74609375 6.72541544,3.95740045 5.46191406,7.16308594 C1.92578125,16.1347656 0.733398437,22.3045525 0.733398437,29.0039062 C0.733398437,37.5464598 16.3320312,39.1171875 21.6933594,37.7265625 C28.0568521,36.0759954 33.3027344,10.7714844 28.0205078,6.08886719 C22.9279953,1.57442874 20.0634766,0.74609375 11.5068359,0.74609375 Z"/>
          <text id="tooth-2d-x" fill="#000000" fill-opacity="0" font-family="Helvetica" font-size="24">
            <tspan x="8.492" y="26">×</tspan>
          </text>
        </g>
        <g id="tooth-3d" transform="translate(22 31)">
          <path id="Upper-canine" fill="#FEFBF4" stroke="#000000" d="M19.5507813,5.51171875 C19.5507813,0.327629346 9.74596697,-0.416146143 4.35742188,3.12597656 C0.486634173,5.67041198 0.342761647,11.7819301 0.995117188,13.7255859 C3.79785156,22.0761719 22.375,25.2255859 23.3818359,22.2783203 C24.3886719,19.3310547 19.5507813,21.4111328 19.5507813,5.51171875 Z"/>
          <text id="tooth-3d-x" fill="#000000" fill-opacity="0" font-family="Helvetica" font-size="16">
            <tspan x="7.328" y="16">×</tspan>
          </text>
        </g>
        <g id="tooth-4d" transform="translate(39 15)">
          <path id="Upper-lateral-incistor" fill="#FEFBF4" stroke="#000000" d="M0.833984375,7.9609375 C0.833984375,-0.462890625 22.7668915,-1.45333695 22.3994141,2.20605469 C20.9296875,16.8417969 20.4910884,22.623173 16.5185547,25.5117188 C14.0419922,27.3125 0.833984375,13.1730747 0.833984375,7.9609375 Z"/>
          <text id="tooth-4d-x" fill="#000000" fill-opacity="0" font-family="Helvetica" font-size="16">
            <tspan x="7.328" y="15">×</tspan>
          </text>
        </g>
        <g id="tooth-5d" transform="translate(63)">
          <path id="Upper-central-incistor" fill="#FEFBF4" stroke="#000000" d="M4.96972656,1.90234375 C10.4847614,-0.498344353 15.5439453,0.318359375 22.8427734,1.90234375 C25.1545489,2.40404295 24.4137115,12.406441 21.2382813,16.9511719 C15.0693359,25.7802734 16.2587891,29.4091797 11.5644531,28.3291016 C8.25997817,27.5688042 6.65820313,23.1279297 1.11230469,11.4667969 C-0.780808221,7.48622613 0.892295794,3.67724452 4.96972656,1.90234375 Z"/>
          <text id="tooth-5d-x" fill="#000000" fill-opacity="0" font-family="Helvetica" font-size="16">
            <tspan x="8.328" y="15">×</tspan>
          </text>
        </g>
      </g>
    </g>
  </g>
</svg>
