<svg xmlns="http://www.w3.org/2000/svg" width="307" height="425" viewBox="0 0 307 425">
  <g id="Dental-chart" fill="none" fill-rule="evenodd">
    <g id="Permanent-teeth">
      <g id="Lower-right-numbers" fill="#000000" transform="translate(0 238)" font-size="12" font-family="Helvetica">
        <text id="27">
          <tspan x="78" y="168">27</tspan>
        </text>
        <text id="28">
          <tspan x="45" y="148">28</tspan>
        </text>
        <text id="29">
          <tspan x="28" y="117">29</tspan>
        </text>
        <text id="30">
          <tspan x="14" y="86">30</tspan>
        </text>
        <text id="31">
          <tspan x="5" y="48">31</tspan>
        </text>
        <text id="32">
          <tspan x="0" y="11">32</tspan>
        </text>
        <text id="25">
          <tspan x="131" y="184">25</tspan>
        </text>
        <text id="26">
          <tspan x="108" y="180">26</tspan>
        </text>
      </g>
      <g id="Lower-left-numbers" fill="#000000" transform="translate(161 238)" font-size="12" font-family="Helvetica">
        <text id="17">
          <tspan x="132" y="11">17</tspan>
        </text>
        <text id="18">
          <tspan x="125" y="48">18</tspan>
        </text>
        <text id="19">
          <tspan x="118" y="85">19</tspan>
        </text>
        <text id="20">
          <tspan x="102" y="117">20</tspan>
        </text>
        <text id="21">
          <tspan x="82.652" y="148">21</tspan>
        </text>
        <text id="22">
          <tspan x="58" y="168">22</tspan>
        </text>
        <text id="23">
          <tspan x="28" y="180">23</tspan>
        </text>
        <text id="24">
          <tspan x="0" y="184">24</tspan>
        </text>
      </g>
      <g id="Upper-left-numbers" fill="#000000" transform="translate(168)" font-size="12" font-family="Helvetica">
        <text id="10">
          <tspan x="29" y="25">10</tspan>
        </text>
        <text id="11">
          <tspan x="61" y="40">11</tspan>
        </text>
        <text id="12">
          <tspan x="83" y="65">12</tspan>
        </text>
        <text id="9">
          <tspan x="0" y="11">9</tspan>
        </text>
        <text id="13">
          <tspan x="95" y="88">13</tspan>
        </text>
        <text id="14">
          <tspan x="111" y="118">14</tspan>
        </text>
        <text id="15">
          <tspan x="118" y="152">15</tspan>
        </text>
        <text id="16">
          <tspan x="125" y="195">16</tspan>
        </text>
      </g>
      <g id="Upper-left-numbers" fill="#000000" font-size="12" font-family="Helvetica">
        <text id="8">
          <tspan x="132" y="11">8</tspan>
        </text>
        <text id="7">
          <tspan x="99" y="21">7</tspan>
        </text>
        <text id="6">
          <tspan x="65" y="41">6</tspan>
        </text>
        <text id="3">
          <tspan x="14" y="118">3</tspan>
        </text>
        <text id="4">
          <tspan x="28" y="88">4</tspan>
        </text>
        <text id="5">
          <tspan x="42" y="65">5</tspan>
        </text>
        <text id="2">
          <tspan x="5" y="152">2</tspan>
        </text>
        <text id="1">
          <tspan x="0" y="195">1</tspan>
        </text>
      </g>
      <g id="Lower-right" transform="matrix(1 0 0 -1 27 401)">
        <g id="tooth-32" transform="translate(0 142)">
          <path id="Upper-third-molar" fill="#FEFBF4" stroke="#000000" d="M3.62109375,2.50683594 C-1.87792969,9.52441406 0.72265625,25.4863281 0.72265625,30.7929687 C0.72265625,36.0996094 10.203125,36.0644531 17.84375,36.0644531 C31.9804688,36.0644531 32.6660156,10.6337891 27.9746094,5.34570312 C27.9746094,2.50683594 7.32251074,-2.21672693 3.62109375,2.50683594 Z"/>
          <text id="tooth-32-x" fill="#000000" fill-opacity="0" font-family="Helvetica" font-size="24">
            <tspan x="8.492" y="25">×</tspan>
          </text>
        </g>
        <g id="tooth-31" transform="translate(3 104)">
          <path id="Upper-second-molar" fill="#FEFBF4" stroke="#000000" d="M7.51855469,1.12011719 C2.47560153,2.62202764 2.41796875,11.7246094 2.41796875,20.5478516 C0.369140625,28.0761719 1.22611273,29.0048566 0.369140625,31.3925781 C-1.65917969,37.0439453 20.8671875,38.7001953 20.8671875,38.7001953 C20.8671875,38.7001953 27.6909378,35.5872886 31.6445312,26.5214844 C35.4375,17.8240012 30.6435547,5.59375 28.7490234,5.59375 C22.0312226,5.59375 12.6337891,-0.403320313 7.51855469,1.12011719 Z"/>
          <text id="tooth-31-x" fill="#000000" fill-opacity="0" font-family="Helvetica" font-size="24">
            <tspan x="10.492" y="26">×</tspan>
          </text>
        </g>
        <g id="tooth-30" transform="translate(14 71)">
          <path id="Upper-first-molar" fill="#FEFBF4" stroke="#000000" d="M11.5068359,0.74609375 C8.38912674,0.74609375 6.72541544,3.95740045 5.46191406,7.16308594 C1.92578125,16.1347656 0.733398437,22.3045525 0.733398437,29.0039062 C0.733398437,37.5464598 16.3320312,39.1171875 21.6933594,37.7265625 C28.0568521,36.0759954 33.3027344,10.7714844 28.0205078,6.08886719 C22.9279953,1.57442874 20.0634766,0.74609375 11.5068359,0.74609375 Z"/>
          <text id="tooth-30-x" fill="#000000" fill-opacity="0" font-family="Helvetica" font-size="24">
            <tspan x="8.492" y="26">×</tspan>
          </text>
        </g>
        <g id="tooth-29" transform="translate(26 46)">
          <path id="Lower-second-premolar" fill="#FEFBF4" stroke="#000000" d="M5.09375,5.39355469 C0.677734375,9.05371094 0.556640625,13.5566284 0.556640625,19.5556641 C0.556640625,23.9140625 7.35109773,23.0070596 11.6259766,25.4550781 C18.125,29.1767578 19.4550781,30.5507812 25.6630859,29.1767578 C29.7092534,28.2812163 32.3192683,23.2178867 32.1464844,15.7652833 C32.0023737,9.54942963 27.9683107,3.49587745 20.890625,1.41308594 C15.3984608,-0.203125 9.67543488,1.59608566 5.09375,5.39355469 Z" transform="translate(0 2)"/>
          <text id="tooth-29-x" fill="#000000" fill-opacity="0" font-family="Helvetica" font-size="24">
            <tspan x="9.492" y="23">×</tspan>
          </text>
        </g>
        <g id="tooth-28" transform="translate(42 26)">
          <path id="Lower-first-premolar" fill="#FEFBF4" stroke="#000000" d="M8.66894531,0.237304687 C4.51545459,0.237304687 0.493164063,4.47851562 0.493164063,7.90820312 C0.493164063,13.9767589 1.92791829,17.8763374 6.06054688,20.6328125 C11.8701172,24.5078125 14.6826172,30.3837891 23.3027344,27.0078125 C29.8644945,24.4379694 33.359375,14.1260913 29.0019531,9.73730469 C21.4198032,2.10057856 19.1445313,0.237304687 8.66894531,0.237304687 Z"/>
          <text id="tooth-28-x" fill="#000000" fill-opacity="0" font-family="Helvetica" font-size="20">
            <tspan x="10.16" y="20">×</tspan>
          </text>
        </g>
        <g id="tooth-27" transform="translate(60 9)">
          <path id="Lower-canine" fill="#FEFBF4" stroke="#000000" d="M23.0419922,5.65429687 C23.0419922,-0.237172219 12.1086389,-0.488343279 5.73339844,3.53710938 C1.15383159,6.42873826 -0.32649573,13.0059721 0.4453125,15.2148438 C3.76125499,24.7048844 25.526576,29.8445433 26.7177734,26.4951172 C27.9089709,23.1456911 23.0419922,23.7232188 23.0419922,5.65429687 Z"/>
          <text id="tooth-27-x" fill="#000000" fill-opacity="0" font-family="Helvetica" font-size="16">
            <tspan x="9.328" y="18">×</tspan>
          </text>
        </g>
        <g id="tooth-26" transform="translate(83 4)">
          <path id="Lower-lateral-incistor" fill="#FEFBF4" stroke="#000000" d="M0.658691406,6.05371094 C2.59912109,-0.817382813 18.0374521,-0.744139245 17.7514648,1.60302734 C16.9692383,8.02294922 16.6782227,20.5087891 13.6870117,20.5087891 C10.8266602,20.5087891 -0.729324296,10.9686976 0.658691406,6.05371094 Z"/>
          <text id="tooth-26-x" fill="#000000" fill-opacity="0" font-family="Helvetica" font-size="14">
            <tspan x="5.412" y="14">×</tspan>
          </text>
        </g>
        <g id="tooth-25" transform="translate(101)">
          <path id="Lower-central-incistor" fill="#FEFBF4" stroke="#000000" d="M4.40869141,1.60644531 C8.10888672,0.564941406 12.9031399,0.310934714 19.328125,1.60644531 C21.3631261,2.01677552 21.1956365,9.8257985 18.4003806,13.5428472 C12.9700045,20.7640009 14.0170518,23.7320141 9.88473938,22.8486388 C8.13337304,22.4742446 7.63774489,20.3986606 6.14160156,17.1801758 C4.64545824,13.961691 3.50510561,12.7492132 1.5625,8.95410156 C-0.103962346,5.6984687 0.710950896,2.64725826 4.40869141,1.60644531 Z"/>
          <text id="tooth-25-x" fill="#000000" fill-opacity="0" font-family="Helvetica" font-size="14">
            <tspan x="6.412" y="15">×</tspan>
          </text>
        </g>
      </g>
      <g id="Lower-left" transform="rotate(180 139 201)">
        <g id="tooth-17" transform="translate(0 142)">
          <path id="Upper-third-molar" fill="#FEFBF4" stroke="#000000" d="M3.62109375,2.50683594 C-1.87792969,9.52441406 0.72265625,25.4863281 0.72265625,30.7929687 C0.72265625,36.0996094 10.203125,36.0644531 17.84375,36.0644531 C31.9804688,36.0644531 32.6660156,10.6337891 27.9746094,5.34570312 C27.9746094,2.50683594 7.32251074,-2.21672693 3.62109375,2.50683594 Z"/>
          <text id="tooth-17-x" fill="#000000" fill-opacity="0" font-family="Helvetica" font-size="24">
            <tspan x="8.499" y="25">×</tspan>
          </text>
        </g>
        <g id="tooth-18" transform="translate(3 104)">
          <path id="Upper-second-molar" fill="#FEFBF4" stroke="#000000" d="M7.51855469,1.12011719 C2.47560153,2.62202764 2.41796875,11.7246094 2.41796875,20.5478516 C0.369140625,28.0761719 1.22611273,29.0048566 0.369140625,31.3925781 C-1.65917969,37.0439453 20.8671875,38.7001953 20.8671875,38.7001953 C20.8671875,38.7001953 27.6909378,35.5872886 31.6445312,26.5214844 C35.4375,17.8240012 30.6435547,5.59375 28.7490234,5.59375 C22.0312226,5.59375 12.6337891,-0.403320313 7.51855469,1.12011719 Z"/>
          <text id="tooth-18-x" fill="#000000" fill-opacity="0" font-family="Helvetica" font-size="24">
            <tspan x="9.673" y="26">×</tspan>
          </text>
        </g>
        <g id="tooth-19" transform="translate(14 71)">
          <path id="Upper-first-molar" fill="#FEFBF4" stroke="#000000" d="M11.5068359,0.74609375 C8.38912674,0.74609375 6.72541544,3.95740045 5.46191406,7.16308594 C1.92578125,16.1347656 0.733398437,22.3045525 0.733398437,29.0039062 C0.733398437,37.5464598 16.3320312,39.1171875 21.6933594,37.7265625 C28.0568521,36.0759954 33.3027344,10.7714844 28.0205078,6.08886719 C22.9279953,1.57442874 20.0634766,0.74609375 11.5068359,0.74609375 Z"/>
          <text id="tooth-19-x" fill="#000000" fill-opacity="0" font-family="Helvetica" font-size="24">
            <tspan x="9" y="26">×</tspan>
          </text>
        </g>
        <g id="tooth-20" transform="translate(26 46)">
          <path id="Lower-second-premolar" fill="#FEFBF4" stroke="#000000" d="M5.09375,5.39355469 C0.677734375,9.05371094 0.556640625,13.5566284 0.556640625,19.5556641 C0.556640625,23.9140625 7.35109773,23.0070596 11.6259766,25.4550781 C18.125,29.1767578 19.4550781,30.5507812 25.6630859,29.1767578 C29.7092534,28.2812163 32.3192683,23.2178867 32.1464844,15.7652833 C32.0023737,9.54942963 27.9683107,3.49587745 20.890625,1.41308594 C15.3984608,-0.203125 9.67543488,1.59608566 5.09375,5.39355469 Z" transform="translate(0 2)"/>
          <text id="tooth-20-x" fill="#000000" fill-opacity="0" font-family="Helvetica" font-size="24">
            <tspan x="10" y="23">×</tspan>
          </text>
        </g>
        <g id="tooth-21" transform="translate(42 26)">
          <path id="Lower-first-premolar" fill="#FEFBF4" stroke="#000000" d="M8.66894531,0.237304687 C4.51545459,0.237304687 0.493164063,4.47851562 0.493164063,7.90820312 C0.493164063,13.9767589 1.92791829,17.8763374 6.06054688,20.6328125 C11.8701172,24.5078125 14.6826172,30.3837891 23.3027344,27.0078125 C29.8644945,24.4379694 33.359375,14.1260913 29.0019531,9.73730469 C21.4198032,2.10057856 19.1445313,0.237304687 8.66894531,0.237304687 Z"/>
          <text id="tooth-21-x" fill="#000000" fill-opacity="0" font-family="Helvetica" font-size="20">
            <tspan x="10" y="19">×</tspan>
          </text>
        </g>
        <g id="tooth-22" transform="translate(60 9)">
          <path id="Lower-canine" fill="#FEFBF4" stroke="#000000" d="M23.0419922,5.65429687 C23.0419922,-0.237172219 12.1086389,-0.488343279 5.73339844,3.53710938 C1.15383159,6.42873826 -0.32649573,13.0059721 0.4453125,15.2148438 C3.76125499,24.7048844 25.526576,29.8445433 26.7177734,26.4951172 C27.9089709,23.1456911 23.0419922,23.7232188 23.0419922,5.65429687 Z"/>
          <text id="tooth-22-x" fill="#000000" fill-opacity="0" font-family="Helvetica" font-size="16">
            <tspan x="10" y="18">×</tspan>
          </text>
        </g>
        <g id="tooth-23" transform="translate(83 4)">
          <path id="Lower-lateral-incistor" fill="#FEFBF4" stroke="#000000" d="M0.658691406,6.05371094 C2.59912109,-0.817382813 18.0374521,-0.744139245 17.7514648,1.60302734 C16.9692383,8.02294922 16.6782227,20.5087891 13.6870117,20.5087891 C10.8266602,20.5087891 -0.729324296,10.9686976 0.658691406,6.05371094 Z"/>
          <text id="tooth-23-x" fill="#000000" fill-opacity="0" font-family="Helvetica" font-size="14">
            <tspan x="5.412" y="14">×</tspan>
          </text>
        </g>
        <g id="tooth-24" transform="translate(101)">
          <path id="Lower-central-incistor" fill="#FEFBF4" stroke="#000000" d="M4.40869141,1.60644531 C8.10888672,0.564941406 12.9031399,0.310934714 19.328125,1.60644531 C21.3631261,2.01677552 21.1956365,9.8257985 18.4003806,13.5428472 C12.9700045,20.7640009 14.0170518,23.7320141 9.88473938,22.8486388 C8.13337304,22.4742446 7.63774489,20.3986606 6.14160156,17.1801758 C4.64545824,13.961691 3.50510561,12.7492132 1.5625,8.95410156 C-0.103962346,5.6984687 0.710950896,2.64725826 4.40869141,1.60644531 Z"/>
          <text id="tooth-24-x" fill="#000000" fill-opacity="0" font-family="Helvetica" font-size="14">
            <tspan x="6.412" y="15">×</tspan>
          </text>
        </g>
      </g>
      <g id="Upper-left" transform="matrix(-1 0 0 1 278 26)">
        <g id="tooth-16" transform="translate(0 145)">
          <path id="Upper-third-molar" fill="#FEFBF4" stroke="#000000" d="M3.62109375,2.50683594 C-1.87792969,9.52441406 0.72265625,25.4863281 0.72265625,30.7929687 C0.72265625,36.0996094 10.203125,36.0644531 17.84375,36.0644531 C31.9804688,36.0644531 32.6660156,10.6337891 27.9746094,5.34570312 C27.9746094,2.50683594 7.32251074,-2.21672693 3.62109375,2.50683594 Z"/>
          <text id="tooth-16-x" fill="#000000" fill-opacity="0" font-family="Helvetica" font-size="24">
            <tspan x="8.492" y="25">×</tspan>
          </text>
        </g>
        <g id="tooth-15" transform="translate(3 107)">
          <path id="Upper-second-molar" fill="#FEFBF4" stroke="#000000" d="M7.51855469,1.12011719 C2.47560153,2.62202764 2.41796875,11.7246094 2.41796875,20.5478516 C0.369140625,28.0761719 1.22611273,29.0048566 0.369140625,31.3925781 C-1.65917969,37.0439453 20.8671875,38.7001953 20.8671875,38.7001953 C20.8671875,38.7001953 27.6909378,35.5872886 31.6445312,26.5214844 C35.4375,17.8240012 30.6435547,5.59375 28.7490234,5.59375 C22.0312226,5.59375 12.6337891,-0.403320313 7.51855469,1.12011719 Z"/>
          <text id="tooth-15-x" fill="#000000" fill-opacity="0" font-family="Helvetica" font-size="24">
            <tspan x="10.492" y="26">×</tspan>
          </text>
        </g>
        <g id="tooth-14" transform="translate(14 74)">
          <path id="Upper-first-molar" fill="#FEFBF4" stroke="#000000" d="M11.5068359,0.74609375 C8.38912674,0.74609375 6.72541544,3.95740045 5.46191406,7.16308594 C1.92578125,16.1347656 0.733398437,22.3045525 0.733398437,29.0039062 C0.733398437,37.5464598 16.3320312,39.1171875 21.6933594,37.7265625 C28.0568521,36.0759954 33.3027344,10.7714844 28.0205078,6.08886719 C22.9279953,1.57442874 20.0634766,0.74609375 11.5068359,0.74609375 Z"/>
          <text id="tooth-14-x" fill="#000000" fill-opacity="0" font-family="Helvetica" font-size="24">
            <tspan x="8.492" y="26">×</tspan>
          </text>
        </g>
        <g id="tooth-13" transform="translate(26 49)">
          <path id="Upper-second-premolar" fill="#FEFBF4" stroke="#000000" d="M6.12695312,4.50195313 C1.7109375,8.16210938 0.63671875,12.762683 0.63671875,18.7617188 C0.63671875,21.8701172 7.23884717,23.1816839 11.6259766,25.4550781 C15.3571272,27.3885466 19.8466797,30.046875 23.9628906,28.2294922 C28.0791016,26.4121094 31.1796198,22.991671 31.0068359,15.5390677 C30.8627253,9.32321401 28.3950685,3.95876807 21.3173828,1.87597656 C15.8252186,0.259765625 10.708638,0.704484098 6.12695312,4.50195313 Z" transform="translate(0 2)"/>
          <text id="tooth-13-x" fill="#000000" fill-opacity="0" font-family="Helvetica" font-size="24">
            <tspan x="9.492" y="23">×</tspan>
          </text>
        </g>
        <g id="tooth-12" transform="translate(42 31)">
          <path id="Upper-first-premolar" fill="#FEFBF4" stroke="#000000" d="M9.17480469,0.873046875 C5.021576,0.873046875 0.493164063,4.47851562 0.493164063,7.90820313 C0.493164063,13.9767589 1.92791829,17.8763374 6.06054688,20.6328125 C11.8701172,24.5078125 13.0595703,29.3134766 21.6796875,25.9375 C28.2414477,23.3676569 29.2450649,13.5946613 27.2607422,10.7695313 C22.8564453,4.49902344 20.2871094,0.873046875 9.17480469,0.873046875 Z"/>
          <text id="tooth-12-x" fill="#000000" fill-opacity="0" font-family="Helvetica" font-size="20">
            <tspan x="9.16" y="19">×</tspan>
          </text>
        </g>
        <g id="tooth-11" transform="translate(57 16)">
          <path id="Upper-canine" fill="#FEFBF4" stroke="#000000" d="M19.5507813,5.51171875 C19.5507813,0.327629346 9.74596697,-0.416146143 4.35742188,3.12597656 C0.486634173,5.67041198 0.342761647,11.7819301 0.995117188,13.7255859 C3.79785156,22.0761719 22.375,25.2255859 23.3818359,22.2783203 C24.3886719,19.3310547 19.5507813,21.4111328 19.5507813,5.51171875 Z"/>
          <text id="tooth-11-x" fill="#000000" fill-opacity="0" font-family="Helvetica" font-size="16">
            <tspan x="7.328" y="16">×</tspan>
          </text>
        </g>
        <g id="tooth-10" transform="translate(74 6)">
          <path id="Upper-lateral-incistor" fill="#FEFBF4" stroke="#000000" d="M0.833984375,7.9609375 C0.833984375,-0.462890625 22.7668915,-1.45333695 22.3994141,2.20605469 C20.9296875,16.8417969 20.4910884,22.623173 16.5185547,25.5117188 C14.0419922,27.3125 0.833984375,13.1730747 0.833984375,7.9609375 Z"/>
          <text id="tooth-10-x" fill="#000000" fill-opacity="0" font-family="Helvetica" font-size="16">
            <tspan x="8.883" y="15">×</tspan>
          </text>
        </g>
        <g id="tooth-9" transform="translate(98)">
          <path id="Upper-central-incistor" fill="#FEFBF4" stroke="#000000" d="M4.96972656,1.90234375 C10.4847614,-0.498344353 15.5439453,0.318359375 22.8427734,1.90234375 C25.1545489,2.40404295 24.4137115,12.406441 21.2382813,16.9511719 C15.0693359,25.7802734 16.2587891,29.4091797 11.5644531,28.3291016 C8.25997817,27.5688042 6.65820313,23.1279297 1.11230469,11.4667969 C-0.780808221,7.48622613 0.892295794,3.67724452 4.96972656,1.90234375 Z"/>
          <text id="tooth-9-x" fill="#000000" fill-opacity="0" transform="matrix(-1 0 0 1 26 0)" font-family="Helvetica" font-size="16">
            <tspan x="8.328" y="15">×</tspan>
          </text>
        </g>
      </g>
      <g id="Upper-right" transform="translate(27 26)">
        <g id="tooth-1" transform="translate(0 145)">
          <path id="Upper-third-molar" fill="#FEFBF4" stroke="#000000" d="M3.62109375,2.50683594 C-1.87792969,9.52441406 0.72265625,25.4863281 0.72265625,30.7929687 C0.72265625,36.0996094 10.203125,36.0644531 17.84375,36.0644531 C31.9804688,36.0644531 32.6660156,10.6337891 27.9746094,5.34570312 C27.9746094,2.50683594 7.32251074,-2.21672693 3.62109375,2.50683594 Z"/>
          <text id="tooth-1-x" fill="#000000" fill-opacity="0" font-family="Helvetica" font-size="24">
            <tspan x="8.492" y="25">×</tspan>
          </text>
        </g>
        <g id="tooth-2" transform="translate(3 107)">
          <path id="Upper-second-molar" fill="#FEFBF4" stroke="#000000" d="M7.51855469,1.12011719 C2.47560153,2.62202764 2.41796875,11.7246094 2.41796875,20.5478516 C0.369140625,28.0761719 1.22611273,29.0048566 0.369140625,31.3925781 C-1.65917969,37.0439453 20.8671875,38.7001953 20.8671875,38.7001953 C20.8671875,38.7001953 27.6909378,35.5872886 31.6445312,26.5214844 C35.4375,17.8240012 30.6435547,5.59375 28.7490234,5.59375 C22.0312226,5.59375 12.6337891,-0.403320313 7.51855469,1.12011719 Z"/>
          <text id="tooth-2-x" fill="#000000" fill-opacity="0" font-family="Helvetica" font-size="24">
            <tspan x="10.492" y="26">×</tspan>
          </text>
        </g>
        <g id="tooth-3" transform="translate(14 74)">
          <path id="Upper-first-molar" fill="#FEFBF4" stroke="#000000" d="M11.5068359,0.74609375 C8.38912674,0.74609375 6.72541544,3.95740045 5.46191406,7.16308594 C1.92578125,16.1347656 0.733398437,22.3045525 0.733398437,29.0039062 C0.733398437,37.5464598 16.3320312,39.1171875 21.6933594,37.7265625 C28.0568521,36.0759954 33.3027344,10.7714844 28.0205078,6.08886719 C22.9279953,1.57442874 20.0634766,0.74609375 11.5068359,0.74609375 Z"/>
          <text id="tooth-3-x" fill="#000000" fill-opacity="0" font-family="Helvetica" font-size="24">
            <tspan x="8.492" y="26">×</tspan>
          </text>
        </g>
        <g id="tooth-4" transform="translate(26 49)">
          <path id="Upper-second-premolar" fill="#FEFBF4" stroke="#000000" d="M6.12695312,4.50195313 C1.7109375,8.16210938 0.63671875,12.762683 0.63671875,18.7617188 C0.63671875,21.8701172 7.23884717,23.1816839 11.6259766,25.4550781 C15.3571272,27.3885466 19.8466797,30.046875 23.9628906,28.2294922 C28.0791016,26.4121094 31.1796198,22.991671 31.0068359,15.5390677 C30.8627253,9.32321401 28.3950685,3.95876807 21.3173828,1.87597656 C15.8252186,0.259765625 10.708638,0.704484098 6.12695312,4.50195313 Z" transform="translate(0 2)"/>
          <text id="tooth-4-x" fill="#000000" fill-opacity="0" font-family="Helvetica" font-size="24">
            <tspan x="9.492" y="23">×</tspan>
          </text>
        </g>
        <g id="tooth-5" transform="translate(42 31)">
          <path id="Upper-first-premolar" fill="#FEFBF4" stroke="#000000" d="M9.17480469,0.873046875 C5.021576,0.873046875 0.493164063,4.47851562 0.493164063,7.90820313 C0.493164063,13.9767589 1.92791829,17.8763374 6.06054688,20.6328125 C11.8701172,24.5078125 13.0595703,29.3134766 21.6796875,25.9375 C28.2414477,23.3676569 29.2450649,13.5946613 27.2607422,10.7695313 C22.8564453,4.49902344 20.2871094,0.873046875 9.17480469,0.873046875 Z"/>
          <text id="tooth-5-x" fill="#000000" fill-opacity="0" font-family="Helvetica" font-size="20">
            <tspan x="9.16" y="19">×</tspan>
          </text>
        </g>
        <g id="tooth-6" transform="translate(57 16)">
          <path id="Upper-canine" fill="#FEFBF4" stroke="#000000" d="M19.5507813,5.51171875 C19.5507813,0.327629346 9.74596697,-0.416146143 4.35742188,3.12597656 C0.486634173,5.67041198 0.342761647,11.7819301 0.995117188,13.7255859 C3.79785156,22.0761719 22.375,25.2255859 23.3818359,22.2783203 C24.3886719,19.3310547 19.5507813,21.4111328 19.5507813,5.51171875 Z"/>
          <text id="tooth-6-x" fill="#000000" fill-opacity="0" font-family="Helvetica" font-size="16">
            <tspan x="7.328" y="16">×</tspan>
          </text>
        </g>
        <g id="tooth-7" transform="translate(74 7)">
          <path id="Upper-lateral-incistor" fill="#FEFBF4" stroke="#000000" d="M0.833984375,7.9609375 C0.833984375,-0.462890625 22.7668915,-1.45333695 22.3994141,2.20605469 C20.9296875,16.8417969 20.4910884,22.623173 16.5185547,25.5117188 C14.0419922,27.3125 0.833984375,13.1730747 0.833984375,7.9609375 Z"/>
          <text id="tooth-7-x" fill="#000000" fill-opacity="0" font-family="Helvetica" font-size="16">
            <tspan x="7.328" y="15">×</tspan>
          </text>
        </g>
        <g id="tooth-8" transform="translate(98)">
          <path id="Upper-central-incistor" fill="#FEFBF4" stroke="#000000" d="M4.96972656,1.90234375 C10.4847614,-0.498344353 15.5439453,0.318359375 22.8427734,1.90234375 C25.1545489,2.40404295 24.4137115,12.406441 21.2382813,16.9511719 C15.0693359,25.7802734 16.2587891,29.4091797 11.5644531,28.3291016 C8.25997817,27.5688042 6.65820313,23.1279297 1.11230469,11.4667969 C-0.780808221,7.48622613 0.892295794,3.67724452 4.96972656,1.90234375 Z"/>
          <text id="tooth-8-x" fill="#000000" fill-opacity="0" font-family="Helvetica" font-size="16">
            <tspan x="8.328" y="15">×</tspan>
          </text>
        </g>
      </g>
    </g>
  </g>
</svg>
